<svg version="1.0"
	xmlns="http://www.w3.org/2000/svg"
	xmlns:xlink="http://www.w3.org/1999/xlink"
	viewBox="0 0 235 60"
	class="site-logo-svg"
	>
		<svg xmlns="http://www.w3.org/2000/svg" viewBox="0 0 1362 1453" width="60" height="60">
				<path d="M1332.92 890.89v-.06c-.57-135.66-126-189.08-125.93-189.37l9.89-86.59a10.95 10.95 0 0 0-13.2-11.94 308 308 0 0 0-78.17 28.91l4.16-36.4a11 11 0 0 0-3.43-9.28 10.65 10.65 0 0 0-9.51-2.68c-81 15.85-152.07 62.11-197.48 127.89A528.7 528.7 0 0 0 568.83 513c-111.65-13.7-219.06 7.83-313.12 62.41 59.65-177 205.35-316.14 386.26-366.64a572.23 572.23 0 0 1 108.08-19.14c159.23-12.55 317.31 42.94 435.3 153.46 27 17.32 64.93 11.76 85.8-12.63a66.14 66.14 0 0 0-1.09-86.7C1119.74 74.74 895.3-15.57 669.69 2.21a722.42 722.42 0 0 0-283.92 82.9C88.71 243.08-60.47 581 23 907s376.59 550.67 713 546.52a4.3 4.3 0 0 0 .72 0 10.94 10.94 0 0 0 6.75-18.78c-124.57-120-141.42-188.67-133.63-225.14 5.33-24.8 22.62-37.56 32.3-42.95 188.67 229.49 413.76 224.22 457.32 220.79 7.24-.57 11.13-1.18 11.13-1.18a10.86 10.86 0 0 0 8.36-6.44c1.49-3.42.64-7.13-1-10.51-197.73-405.44 247.17-200.47 244.13-409.67-6.59-18.08-29.73-43.8-29.16-68.75zm-112.6-1.4a31.92 31.92 0 1 1 31.92-31.92 31.93 31.93 0 0 1-31.92 31.92z"></path>
			</svg>
		<g transform="translate(67.00024032592773,6.777990341186523)" mask="url(#b3d56d8b-2341-467e-9b43-ff5a300f7026)">
			<path d="M20.13-28.87L20.13-28.87L20.43-29.04Q24.85-27.91 25.70-25.50L25.70-25.50Q26.25-23.94 25.13-22.92L25.13-22.92Q24.04-21.90 22.61-22.61L22.61-22.61Q22.20-22.81 21.83-23.19L21.83-23.19Q21.96-26.11 20.13-28.87ZM3.37-28.19L3.37-28.19L3.64-28.42Q8.50-27.98 9.76-25.64L9.76-25.64Q10.51-24.28 9.62-23.19L9.62-23.19Q8.70-22.07 7.21-22.61L7.21-22.61Q6.90-22.75 6.56-22.95L6.56-22.95Q5.92-25.57 3.37-28.19ZM0.88-20.50L0.88-20.50L1.16-20.71Q5.78-20.40 7.00-18.26L7.00-18.26Q7.75-16.93 6.87-15.84L6.87-15.84Q6.02-14.79 4.59-15.33L4.59-15.33Q4.28-15.47 4.01-15.64L4.01-15.64Q3.40-18.05 0.88-20.50ZM11.97-24.48L11.97-24.48L12.51-24.34Q8.70-12.85 7.79-9.28L7.79-9.28Q7.17-6.83 7.21-5.88L7.21-5.88Q7.24-5.17 7.92-3.33Q8.60-1.50 8.53 0.20L8.53 0.20Q8.47 1.50 7.68 2.28L7.68 2.28Q6.94 3.06 5.71 3.06L5.71 3.06Q4.22 3.06 3.84 1.26L3.84 1.26Q4.32-1.43 4.22-3.50L4.22-3.50Q4.11-5.61 3.50-6.02L3.50-6.02Q2.86-6.46 1.67-6.56L1.67-6.56L1.67-7.24L3.26-7.24Q3.67-7.24 3.84-7.34Q4.01-7.45 4.28-7.96L4.28-7.96Q4.90-8.98 5.85-11.05L5.85-11.05Q6.83-13.12 11.97-24.48ZM21.39-7.00L17-7.00L17-0.71L21.39-0.71L21.39-7.00ZM21.39-14.96L21.39-20.91L17-20.91L17-14.96L21.39-14.96ZM17-7.96L21.39-7.96L21.39-13.97L17-13.97L17-7.96ZM25.09-0.71L33.49-0.71L33.49 0.24L17 0.24L17 1.90Q17 2.07 16.66 2.31L16.66 2.31Q16.32 2.58 15.57 2.79L15.57 2.79Q14.82 3.03 13.94 3.03L13.94 3.03L13.26 3.03L13.26-15.44Q11.49-13.09 9.42-11.32L9.42-11.32L9.08-11.63Q11.25-15.03 12.82-19.86L12.82-19.86Q14.42-24.68 15.13-28.87L15.13-28.87L19.35-27.40Q18.50-24.28 17.31-21.96L17.31-21.96L32.95-21.90L32.95-20.91L25.09-20.91L25.09-14.96L31.99-14.96L31.99-13.97L25.09-13.97L25.09-7.96L31.99-7.96L31.99-7.00L25.09-7.00L25.09-0.71ZM59.81-21.73L61.64-21.73L62.90-23.32Q62.70-23.39 62.49-23.53L62.49-23.53Q62.05-25.36 60.38-27.10L60.38-27.10Q60.04-27.03 59.84-27.00L59.84-27.00Q59.77-23.53 59.81-21.73L59.81-21.73ZM52.09-14.55L52.09-14.55L49.40-14.55L49.40-14.31Q49.40-9.35 48.28-5.98L48.28-5.98Q50.05-5.85 50.80-5.85L50.80-5.85Q51.14-5.85 51.34-6.09L51.34-6.09Q51.95-6.87 52.09-14.55ZM45.76-18.26L42.16-18.26L42.16-9.04Q45.36-10.00 45.63-10.10L45.63-10.10Q45.76-12.00 45.76-14.31L45.76-14.31L45.76-18.26ZM66.74-7.14L67.12-7.07L66.37-1.29Q67.73 1.90 66.84 2.52L66.84 2.52Q65.65 3.33 64.09 2.52L64.09 2.52Q62.53 1.73 61.61 0.34L61.61 0.34Q60.38-1.43 59.40-3.81L59.40-3.81Q55.93 0.14 50.18 2.69L50.18 2.69L49.88 2.18Q55.35-1.43 58.38-6.66L58.38-6.66Q56.71-12.14 56.30-20.77L56.30-20.77L49.40-20.77L49.40-15.54L55.45-15.54L55.45-14.04Q55.35-8.67 55.05-6.39Q54.74-4.11 53.79-3.33L53.79-3.33Q52.67-2.48 50.76-2.48L50.76-2.48Q50.76-3.84 50.32-4.39L50.32-4.39Q49.71-5.17 48.25-5.54L48.25-5.54L48.25-5.85Q46.31-0.20 40.83 2.92L40.83 2.92L40.49 2.58Q44.74-1.90 45.53-9.25L45.53-9.25Q41.99-6.39 37.60-3.40L37.60-3.40Q37.40-2.65 36.75-2.41L36.75-2.41L34.68-6.94Q35.39-7.07 38.42-7.92L38.42-7.92L38.42-18.26L35.39-18.26L35.12-19.21L38.42-19.21L38.42-28.25L42.16-27.81L42.16-19.28L43.76-21.93Q44.81-20.84 45.76-19.75L45.76-19.75L45.76-23.26L49.98-21.73L56.24-21.73Q56.13-24.99 56.13-28.46L56.13-28.46L61.06-27.95Q61.06-27.64 60.83-27.40L60.83-27.40Q64.67-27.34 65.48-25.53L65.48-25.53Q65.96-24.45 65.08-23.63L65.08-23.63Q64.87-23.43 64.63-23.32L64.63-23.32Q65.96-22.30 67.08-21.28L67.08-21.28Q66.91-20.77 66.16-20.77L66.16-20.77L59.84-20.77Q60.01-15.37 60.72-11.70L60.72-11.70Q61.81-14.69 62.53-17.88L62.53-17.88L65.65-16.35Q64.12-10.88 61.95-7.28L61.95-7.28Q62.87-4.86 64.12-3.16L64.12-3.16Q64.33-2.86 64.43-2.79L64.43-2.79Q64.57-2.72 64.70-2.82Q64.84-2.92 65.01-3.23L65.01-3.23Q65.93-5.00 66.74-7.14L66.74-7.14ZM69.53-13.26L69.22-14.35L93.23-14.35L96.05-18.29Q99.18-15.57 101.05-13.80L101.05-13.80Q100.91-13.26 99.99-13.26L99.99-13.26L69.53-13.26ZM126.31-12.24L126.31-24.55L111.93-24.55L111.93-12.24L126.31-12.24ZM126.31-11.29L111.93-11.29L111.93-9.93Q111.93-9.55 110.74-9.04L110.74-9.04Q109.58-8.53 108.36-8.53L108.36-8.53L107.71-8.53L107.71-27.30L112.20-25.53L130.56-25.53L130.56-10.17Q130.53-9.93 129.23-9.49L129.23-9.49Q127.98-9.08 127.02-9.08L127.02-9.08L126.31-9.08L126.31-11.29ZM102.92 3.09L102.92 3.09L102.68 2.75Q105.88 0.54 108.77-2.72L108.77-2.72Q111.69-5.98 113.22-8.84L113.22-8.84L116.93-6.19Q114.55-3.13 110.81-0.68L110.81-0.68Q107.07 1.73 102.92 3.09ZM121.72-7.82L121.72-7.82L122.03-8.09Q129.78-6.39 132.70-2.55L132.70-2.55Q134.33-0.37 133.69 1.39L133.69 1.39Q133.21 2.72 131.78 2.65L131.78 2.65Q131.14 2.62 130.46 2.24L130.46 2.24Q129.34-0.24 126.85-2.99L126.85-2.99Q124.37-5.78 121.72-7.82ZM144.23-28.90L144.23-28.90L147.46-26.38Q146.17-24.17 144.16-22.10L144.16-22.10Q146.91-17.95 147.15-10.61L147.15-10.61Q147.46-2.04 145.04 1.36L145.04 1.36Q143.79 3.06 140.42 3.06L140.42 3.06Q140.42 0.82 139.77 0.14L139.77 0.14Q138.82-0.75 137.36-1.09L137.36-1.09L137.36-1.56Q139.81-1.29 141.03-1.29L141.03-1.29Q141.75-1.29 142.12-1.80L142.12-1.80Q143.34-3.60 143.34-10.64L143.34-10.64L143.34-11.39Q140.66-8.26 136.92-6.12L136.92-6.12L136.65-6.43Q138.79-8.84 140.32-12.00L140.32-12.00Q141.88-15.16 142.63-18.36L142.63-18.36Q142.29-19.58 142.12-20.16L142.12-20.16Q139.60-18.02 137.02-16.59L137.02-16.59L136.71-16.97Q138.96-19.24 141.07-22.64L141.07-22.64Q139.64-25.30 137.43-27.44L137.43-27.44L137.77-27.78Q140.28-26.42 142.19-24.55L142.19-24.55Q143.48-26.89 144.23-28.90ZM159.80-7.68L159.80-0.65L163.30-0.65L163.30-7.68L159.80-7.68ZM156.16-7.68L152.80-7.68L152.80-0.65L156.16-0.65L156.16-7.68ZM156.16-8.67L156.16-15.03L152.80-15.03L152.80-8.67L156.16-8.67ZM163.30-8.67L163.30-15.03L159.80-15.03L159.80-8.67L163.30-8.67ZM153.03-15.98L167.21-15.98L167.21 1.60Q167.18 1.84 166.02 2.24Q164.87 2.65 163.95 2.65L163.95 2.65L163.30 2.65L163.30 0.31L152.80 0.31L152.80 1.63Q152.80 1.97 151.74 2.45L151.74 2.45Q150.72 2.92 149.60 2.92L149.60 2.92L148.99 2.92L148.99-17.65L153.03-15.98ZM163.64-23.36L169.49-23.36L169.49-22.41L163.64-22.41L163.64-18.63Q163.64-18.39 162.59-18.05L162.59-18.05Q161.53-17.75 160.48-17.75L160.48-17.75L159.80-17.75L159.80-22.41L155.89-22.41L155.89-18.46Q155.89-18.33 155.41-18.12L155.41-18.12Q154.97-17.92 154.19-17.75L154.19-17.75Q153.44-17.61 152.73-17.61L152.73-17.61L152.08-17.61L152.08-22.41L147.12-22.41L146.85-23.36L152.08-23.36L152.08-28.59L155.89-28.15L155.89-23.36L159.80-23.36L159.80-28.59L163.64-28.15L163.64-23.36Z" transform="translate(-0.8840000000000001, 29.036)"></path>
			<g transform="translate(0,39.130001068115234)">
				<rect x="0" height="1" y="5.170000076293945" width="15.895004272460938"></rect>
				<rect height="1" y="5.170000076293945" width="15.895004272460938" x="152.71499633789062"></rect>
				<g transform="translate(18.895004272460938,0)">
					<path d="M4.17-8.81L4.88-9.70Q6.61-9.05 7.83-8.44L7.83-8.44L7.13-7.45Q5.95-8.30 4.17-8.81L4.17-8.81ZM2.53-6.23L2.53-7.27Q3.09-7.17 3.98-7.17L3.98-7.17L5.39-7.17Q6.05-7.17 6.75-7.27L6.75-7.27Q6.70-7.27 6.80-7.27L6.80-7.27Q6.66-6.94 6.75-6.38L6.75-6.38Q6.94-5.34 7.59-3.98L7.59-3.98Q8.91-5.16 9.75-6.23L9.75-6.23Q10.50-5.63 10.83-5.16L10.83-5.16Q10.83-5.11 10.59-5.06L10.59-5.06Q10.27-4.97 10.03-4.83L10.03-4.83Q9.84-4.69 9.33-4.31L9.33-4.31Q8.48-3.75 7.92-3.33L7.92-3.33Q9.23-1.50 11.48-0.75L11.48-0.75Q11.02-0.47 10.41 0.23L10.41 0.23Q7.08-1.73 6.66-4.41L6.66-4.41L6.66 0Q6.94 1.17 4.41 1.13L4.41 1.13Q4.36 0.33 3.89-0.19L3.89-0.19Q5.86 0.33 5.72-1.08L5.72-1.08L5.72-6.33L3.98-6.33Q3.23-6.33 2.53-6.23L2.53-6.23ZM0.84-3.98L0.84-5.02Q1.31-4.88 2.11-4.88L2.11-4.88L4.03-4.88Q5.06-4.88 5.20-4.97L5.20-4.97Q4.64-1.50 1.73 0.47L1.73 0.47Q1.22-0.05 0.66-0.28L0.66-0.28Q3.14-1.36 4.13-4.03L4.13-4.03L2.06-4.03Q1.13-4.03 0.84-3.98L0.84-3.98ZM13.45-8.95L14.53-9.23Q15-8.44 15.33-7.03L15.33-7.03L14.16-6.75Q13.97-8.02 13.45-8.95L13.45-8.95ZM16.59-7.73L16.59-8.72Q16.73-8.72 17.06-8.67L17.06-8.67Q17.77-8.63 18.28-8.63L18.28-8.63L20.63-8.63Q21.66-8.63 22.08-8.72L22.08-8.72L22.08-7.73Q22.03-7.73 21.94-7.73L21.94-7.73Q21.28-7.83 20.63-7.83L20.63-7.83L18.28-7.83Q17.16-7.83 16.59-7.73L16.59-7.73ZM15.75-5.39L15.75-6.42Q16.41-6.33 17.20-6.33L17.20-6.33L21.52-6.33Q22.50-6.33 22.92-6.42L22.92-6.42L22.92-5.39Q22.73-5.48 21.52-5.48L21.52-5.48L20.67-5.48L20.67-2.53Q20.58-2.02 21.33-2.06L21.33-2.06Q22.03-1.92 22.13-3.38L22.13-3.38Q22.64-2.91 23.11-2.77L23.11-2.77Q22.78-1.03 21.80-1.17L21.80-1.17L20.86-1.17Q19.50-0.94 19.73-2.34L19.73-2.34L19.73-5.48L18.66-5.48Q18.52-3.42 18.09-2.72L18.09-2.72Q17.72-1.88 16.36-0.89L16.36-0.89Q16.08-1.31 15.42-1.69L15.42-1.69Q17.63-2.30 17.72-5.48L17.72-5.48L17.25-5.48Q16.17-5.48 15.75-5.39L15.75-5.39ZM12.61-4.64L12.61-5.72Q12.94-5.63 13.64-5.63L13.64-5.63L13.92-5.63Q14.53-5.63 15-5.72L15-5.72Q14.95-5.72 15.09-5.72L15.09-5.72Q15.09-5.67 15.05-5.58L15.05-5.58Q14.95-4.97 14.95-4.55L14.95-4.55L14.95-1.17Q16.36-0.47 17.16-0.38L17.16-0.38Q17.95-0.19 20.44-0.28L20.44-0.28Q21.52-0.28 23.39-0.52L23.39-0.52Q22.88 0.09 22.83 0.66L22.83 0.66Q17.48 0.80 16.22 0.28L16.22 0.28Q15.98 0.23 15.38-0.05L15.38-0.05Q14.63-0.42 14.48-0.42L14.48-0.42Q13.92-0.47 13.22 0.66L13.22 0.66L12.38-0.14Q13.08-0.75 13.97-1.31L13.97-1.31L13.97-4.73L13.69-4.73Q12.89-4.73 12.61-4.64L12.61-4.64ZM27.56-9.75L27.56-9.75Q29.02-9.42 29.02-9.28L29.02-9.28Q29.02-9.28 28.92-9.19L28.92-9.19Q28.64-9 28.50-8.77L28.50-8.77Q28.22-8.30 28.08-8.02L28.08-8.02L32.58-8.02Q33.98-8.02 34.31-8.11L34.31-8.11L34.31-7.03Q34.22-7.03 33.98-7.08L33.98-7.08Q33.28-7.13 32.63-7.13L32.63-7.13L30.94-7.13L30.94-5.39L32.39-5.39Q33.56-5.39 33.89-5.53L33.89-5.53L33.89-4.45Q33.66-4.55 32.34-4.55L32.34-4.55L30.94-4.55L30.94-2.48L33.47-2.48Q34.64-2.48 35.06-2.63L35.06-2.63L35.06-1.55Q34.41-1.69 33.47-1.69L33.47-1.69L30.94-1.69L30.94-0.28Q30.94 0.42 31.03 1.13L31.03 1.13L29.91 1.13Q29.91 1.13 29.91 1.08L29.91 1.08Q30 0.42 30-0.28L30-0.28L30-1.69L26.34-1.69Q25.45-1.69 24.70-1.59L24.70-1.59L24.70-2.58Q25.45-2.48 26.30-2.48L26.30-2.48L26.81-2.48L26.81-3.80Q26.81-5.06 26.72-5.48L26.72-5.48Q27.70-5.39 28.50-5.39L28.50-5.39L30-5.39L30-7.13L27.61-7.13Q27-6.19 26.06-4.83L26.06-4.83Q25.64-5.16 24.98-5.39L24.98-5.39Q26.95-7.17 27.56-9.75ZM30-2.48L30-4.55L27.80-4.55L27.80-2.48L30-2.48ZM38.58-9.70L38.58-9.70Q39.84-9.52 39.80-9.33L39.80-9.33Q39.80-9.28 39.70-9.14L39.70-9.14Q39.61-9 39.52-8.81L39.52-8.81Q39.33-8.53 39.14-7.92L39.14-7.92L39.47-7.92Q39.80-7.92 40.50-7.97L40.50-7.97Q41.16-8.02 41.39-8.02L41.39-8.02L41.39-6.98Q41.20-6.98 40.41-7.03L40.41-7.03Q39.66-7.03 39.42-7.03L39.42-7.03L38.81-7.03Q38.67-6.66 38.34-5.81L38.34-5.81Q38.02-4.97 37.83-4.55L37.83-4.55L38.91-4.55L38.91-5.39Q38.91-5.91 38.81-6.33L38.81-6.33Q40.03-6.33 40.03-6.09L40.03-6.09Q40.03-6 39.98-5.86L39.98-5.86Q39.84-5.67 39.84-5.34L39.84-5.34L39.84-4.59L40.03-4.59Q40.17-4.59 40.64-4.64L40.64-4.64Q41.16-4.64 41.25-4.64L41.25-4.64L41.25-3.80Q41.11-3.80 40.73-3.80L40.73-3.80Q40.22-3.84 40.03-3.84L40.03-3.84L39.84-3.84L39.84-2.44L41.34-2.63L41.30-1.69L39.84-1.55L39.84-0.52Q39.84 0.75 39.89 1.17L39.89 1.17L38.86 1.17Q38.86 1.08 38.86 0.61L38.86 0.61Q38.91-0.14 38.91-0.47L38.91-0.47L38.91-1.41Q38.86-1.41 38.63-1.36L38.63-1.36Q37.59-1.22 36.75-0.98L36.75-0.98L36.56-2.06L38.91-2.30L38.91-3.80L38.06-3.80Q37.69-3.80 36.94-3.70L36.94-3.70L36.66-4.55Q37.08-4.64 37.97-7.03L37.97-7.03L37.73-7.03Q37.50-7.03 37.08-6.98L37.08-6.98Q36.70-6.98 36.56-6.98L36.56-6.98L36.56-8.02Q36.98-7.97 37.78-7.97L37.78-7.97L38.20-7.97Q38.20-8.02 38.30-8.34L38.30-8.34Q38.53-9.28 38.58-9.70ZM41.81-8.02L41.81-9.09Q42.28-9 43.41-8.95L43.41-8.95L45.09-8.95Q45.56-8.95 46.69-9.09L46.69-9.09Q46.78-9.09 46.73-8.95L46.73-8.95Q46.69-8.86 46.55-8.67L46.55-8.67Q45.56-6.98 45-6.56L45-6.56Q47.11-5.20 47.72-4.78L47.72-4.78L46.78-3.98Q46.73-4.03 46.69-4.08L46.69-4.08Q45.66-5.11 44.39-5.91L44.39-5.91Q43.41-4.92 42.09-4.17L42.09-4.17Q41.63-4.78 41.16-5.02L41.16-5.02Q43.69-5.95 45.05-8.06L45.05-8.06L43.41-8.06Q42.28-8.06 41.81-8.02L41.81-8.02ZM41.77-2.72L41.77-3.80Q42.80-3.70 43.31-3.70L43.31-3.70L45.09-3.70Q45.98-3.70 46.78-3.80L46.78-3.80L46.78-2.72Q45.52-2.81 45.05-2.81L45.05-2.81L44.63-2.81L44.63-0.19L45.61-0.19Q46.55-0.19 47.44-0.28L47.44-0.28L47.44 0.70Q46.50 0.61 45.61 0.61L45.61 0.61L42.89 0.61Q42 0.61 41.16 0.70L41.16 0.70L41.16-0.28Q41.39-0.28 42-0.23L42-0.23Q42.61-0.19 42.89-0.19L42.89-0.19L43.78-0.19L43.78-2.81L43.31-2.81Q42.56-2.81 41.77-2.72L41.77-2.72ZM50.11-1.92L51.89-1.92L51.89-0.05Q51.75 1.55 50.25 1.59L50.25 1.59L50.25 0.84Q50.86 0.70 50.86-0.09L50.86-0.09L50.11-0.09L50.11-1.92ZM64.17-8.81L64.88-9.70Q66.61-9.05 67.83-8.44L67.83-8.44L67.13-7.45Q65.95-8.30 64.17-8.81L64.17-8.81ZM62.53-6.23L62.53-7.27Q63.09-7.17 63.98-7.17L63.98-7.17L65.39-7.17Q66.05-7.17 66.75-7.27L66.75-7.27Q66.70-7.27 66.80-7.27L66.80-7.27Q66.66-6.94 66.75-6.38L66.75-6.38Q66.94-5.34 67.59-3.98L67.59-3.98Q68.91-5.16 69.75-6.23L69.75-6.23Q70.50-5.63 70.83-5.16L70.83-5.16Q70.83-5.11 70.59-5.06L70.59-5.06Q70.27-4.97 70.03-4.83L70.03-4.83Q69.84-4.69 69.33-4.31L69.33-4.31Q68.48-3.75 67.92-3.33L67.92-3.33Q69.23-1.50 71.48-0.75L71.48-0.75Q71.02-0.47 70.41 0.23L70.41 0.23Q67.08-1.73 66.66-4.41L66.66-4.41L66.66 0Q66.94 1.17 64.41 1.13L64.41 1.13Q64.36 0.33 63.89-0.19L63.89-0.19Q65.86 0.33 65.72-1.08L65.72-1.08L65.72-6.33L63.98-6.33Q63.23-6.33 62.53-6.23L62.53-6.23ZM60.84-3.98L60.84-5.02Q61.31-4.88 62.11-4.88L62.11-4.88L64.03-4.88Q65.06-4.88 65.20-4.97L65.20-4.97Q64.64-1.50 61.73 0.47L61.73 0.47Q61.22-0.05 60.66-0.28L60.66-0.28Q63.14-1.36 64.13-4.03L64.13-4.03L62.06-4.03Q61.13-4.03 60.84-3.98L60.84-3.98ZM73.45-8.95L74.53-9.23Q75-8.44 75.33-7.03L75.33-7.03L74.16-6.75Q73.97-8.02 73.45-8.95L73.45-8.95ZM76.59-7.73L76.59-8.72Q76.73-8.72 77.06-8.67L77.06-8.67Q77.77-8.63 78.28-8.63L78.28-8.63L80.63-8.63Q81.66-8.63 82.08-8.72L82.08-8.72L82.08-7.73Q82.03-7.73 81.94-7.73L81.94-7.73Q81.28-7.83 80.63-7.83L80.63-7.83L78.28-7.83Q77.16-7.83 76.59-7.73L76.59-7.73ZM75.75-5.39L75.75-6.42Q76.41-6.33 77.20-6.33L77.20-6.33L81.52-6.33Q82.50-6.33 82.92-6.42L82.92-6.42L82.92-5.39Q82.73-5.48 81.52-5.48L81.52-5.48L80.67-5.48L80.67-2.53Q80.58-2.02 81.33-2.06L81.33-2.06Q82.03-1.92 82.13-3.38L82.13-3.38Q82.64-2.91 83.11-2.77L83.11-2.77Q82.78-1.03 81.80-1.17L81.80-1.17L80.86-1.17Q79.50-0.94 79.73-2.34L79.73-2.34L79.73-5.48L78.66-5.48Q78.52-3.42 78.09-2.72L78.09-2.72Q77.72-1.88 76.36-0.89L76.36-0.89Q76.08-1.31 75.42-1.69L75.42-1.69Q77.63-2.30 77.72-5.48L77.72-5.48L77.25-5.48Q76.17-5.48 75.75-5.39L75.75-5.39ZM72.61-4.64L72.61-5.72Q72.94-5.63 73.64-5.63L73.64-5.63L73.92-5.63Q74.53-5.63 75-5.72L75-5.72Q74.95-5.72 75.09-5.72L75.09-5.72Q75.09-5.67 75.05-5.58L75.05-5.58Q74.95-4.97 74.95-4.55L74.95-4.55L74.95-1.17Q76.36-0.47 77.16-0.38L77.16-0.38Q77.95-0.19 80.44-0.28L80.44-0.28Q81.52-0.28 83.39-0.52L83.39-0.52Q82.88 0.09 82.83 0.66L82.83 0.66Q77.48 0.80 76.22 0.28L76.22 0.28Q75.98 0.23 75.38-0.05L75.38-0.05Q74.63-0.42 74.48-0.42L74.48-0.42Q73.92-0.47 73.22 0.66L73.22 0.66L72.38-0.14Q73.08-0.75 73.97-1.31L73.97-1.31L73.97-4.73L73.69-4.73Q72.89-4.73 72.61-4.64L72.61-4.64ZM86.58-9.56L86.58-9.56Q87.70-9.56 87.80-9.42L87.80-9.42Q87.80-9.42 87.75-9.38L87.75-9.38Q87.56-9.09 87.56-8.72L87.56-8.72L87.56-7.78Q88.41-7.78 88.92-7.88L88.92-7.88L88.92-6.84Q88.83-6.94 87.56-6.94L87.56-6.94L87.56-5.67Q87.94-5.72 88.88-6.14L88.88-6.14L88.83-5.16L87.56-4.83L87.56-2.91Q87.70-2.11 85.78-1.92L85.78-1.92Q85.73-2.53 85.31-3.14L85.31-3.14Q86.77-2.81 86.67-3.56L86.67-3.56L86.67-4.59Q85.64-4.31 85.03-4.08L85.03-4.08Q84.94-4.03 84.94-4.03L84.94-4.03L84.61-5.16Q84.61-5.16 84.70-5.16L84.70-5.16Q85.36-5.16 86.67-5.44L86.67-5.44L86.67-6.89L86.16-6.89Q85.13-6.89 84.70-6.80L84.70-6.80L84.70-7.83Q85.17-7.73 86.16-7.73L86.16-7.73L86.67-7.73L86.67-8.86Q86.67-9.38 86.58-9.56ZM90.89-9.56L90.89-9.56Q92.16-9.56 92.30-9.38L92.30-9.38Q92.30-9.38 92.25-9.28L92.25-9.28Q92.02-9 91.97-8.77L91.97-8.77Q91.97-8.67 91.97-8.48L91.97-8.48Q91.92-8.06 91.92-7.83L91.92-7.83Q93.05-7.88 93.94-8.06L93.94-8.06Q93.66-6.52 93.75-5.06L93.75-5.06Q93.89-3.33 94.27-3.14L94.27-3.14Q94.55-3.09 94.73-4.41L94.73-4.41Q95.20-3.84 95.58-3.70L95.58-3.70Q95.06-2.16 94.36-2.06L94.36-2.06Q92.58-2.53 92.91-7.08L92.91-7.08L91.83-7.03Q91.83-6.94 91.78-6.70L91.78-6.70Q91.64-5.39 91.41-4.78L91.41-4.78Q91.88-4.41 92.67-3.61L92.67-3.61L91.97-2.95Q91.69-3.38 91.03-3.94L91.03-3.94Q90.38-2.63 89.11-1.73L89.11-1.73Q88.88-2.11 88.17-2.34L88.17-2.34Q89.63-2.91 90.42-4.55L90.42-4.55Q90.33-4.64 89.77-4.97L89.77-4.97Q89.44-5.20 89.25-5.30L89.25-5.30L89.86-5.95L90.70-5.34Q90.80-5.58 90.89-6.75L90.89-6.75Q90.89-6.94 90.89-6.98L90.89-6.98Q89.63-6.98 89.30-6.84L89.30-6.84L89.30-7.88Q89.77-7.78 90.94-7.78L90.94-7.78Q90.98-9.14 90.89-9.56ZM92.81-1.27L93.84-1.64Q94.50-0.70 95.16 0.42L95.16 0.42L94.03 0.89Q93.61-0.33 92.81-1.27L92.81-1.27ZM85.78-1.45L85.78-1.45Q86.67-1.22 86.81-1.03L86.81-1.03Q86.81-0.98 86.77-0.89L86.77-0.89Q86.58-0.70 86.48-0.47L86.48-0.47Q86.20 0 85.78 0.84L85.78 0.84Q85.73 0.98 85.73 0.98L85.73 0.98Q85.59 0.89 85.13 0.70L85.13 0.70Q84.84 0.61 84.70 0.56L84.70 0.56Q85.45-0.23 85.78-1.45ZM90.42-1.22L91.41-1.31Q91.83-0.52 92.06 0.70L92.06 0.70L90.94 0.75Q90.94-0.09 90.42-1.22L90.42-1.22ZM87.84-1.17L88.83-1.27Q89.16-0.23 89.25 0.75L89.25 0.75L88.13 0.75Q88.08-0.42 87.84-1.17L87.84-1.17ZM97.22-8.58L98.02-9.38Q99.19-8.67 100.03-7.73L100.03-7.73L99.14-6.94Q98.48-7.83 97.22-8.58L97.22-8.58ZM100.45-8.95L100.45-8.95Q101.53-8.86 102.28-8.86L102.28-8.86L105.09-8.86Q105.56-8.86 106.69-8.95L106.69-8.95Q106.55-8.20 106.55-7.31L106.55-7.31L106.55-0.70Q106.55 0.19 106.69 0.84L106.69 0.84L105.47 0.84Q105.52 0.56 105.52 0.14L105.52 0.14Q105.52 0 105.52-0.05L105.52-0.05L101.53-0.05Q101.53 0.42 101.63 0.80L101.63 0.80L100.41 0.80Q100.55 0.14 100.55-0.70L100.55-0.70L100.55-7.41Q100.55-8.34 100.45-8.95ZM105.56-8.02L101.53-8.02L101.53-6.28L105.56-6.28L105.56-8.02ZM96.56-5.81L97.27-6.61Q98.11-6.33 99.42-5.39L99.42-5.39L98.67-4.45Q97.73-5.30 96.56-5.81L96.56-5.81ZM105.56-3.66L105.56-5.39L101.53-5.39L101.53-3.66L105.56-3.66ZM98.67-3.94L98.67-3.94Q98.86-3.61 99.56-3.28L99.56-3.28Q98.81-1.50 98.25 0L98.25 0Q98.16 0.23 98.11 0.61L98.11 0.61Q98.06 0.98 97.88 0.75L97.88 0.75Q97.45 0.47 96.80 0.14L96.80 0.14Q97.69-0.80 98.67-3.94ZM105.56-0.89L105.56-2.72L101.53-2.72L101.53-0.89L105.56-0.89ZM109.55-8.06L109.55-9.05Q110.44-8.95 111.47-8.95L111.47-8.95L115.59-8.95Q116.72-8.95 117.47-9.05L117.47-9.05Q117.38-8.58 117.19-7.97L117.19-7.97L116.95-6.98L117.56-6.98Q118.27-6.98 118.78-7.03L118.78-7.03Q118.55-6.14 118.36-4.59L118.36-4.59Q118.22-3.61 118.13-3.47L118.13-3.47Q117.75-3.05 116.58-2.91L116.58-2.91Q116.58-3.33 116.20-3.98L116.20-3.98Q117-3.84 117.23-4.08L117.23-4.08Q117.42-4.45 117.61-6.19L117.61-6.19Q116.58-6.23 115.83-6.14L115.83-6.14Q115.92-6.42 116.16-7.27L116.16-7.27L116.34-8.16L112.64-8.16Q112.59-8.06 112.55-7.83L112.55-7.83Q112.41-7.17 112.31-6.94L112.31-6.94L114.05-6.94Q114.80-6.94 115.64-6.98L115.64-6.98Q115.03-5.53 114.52-4.73L114.52-4.73Q115.64-4.17 116.06-3.94L116.06-3.94Q115.73-3.61 115.41-3.19L115.41-3.19Q115.45-3.23 115.36-3.14L115.36-3.14Q114.80-3.61 114-4.13L114-4.13Q113.16-3.42 112.08-2.91L112.08-2.91Q111.94-3.14 111.61-3.38L111.61-3.38Q111.38-3.52 111.23-3.61L111.23-3.61Q112.64-3.94 113.25-4.50L113.25-4.50Q112.69-4.88 111.98-5.02L111.98-5.02Q112.13-5.20 112.41-5.67L112.41-5.67Q113.25-5.34 113.77-5.06L113.77-5.06Q114.05-5.44 114.42-6.23L114.42-6.23L112.17-6.23Q111.38-4.31 109.59-2.86L109.59-2.86Q109.27-3.28 108.52-3.56L108.52-3.56Q111.42-4.69 111.70-8.16L111.70-8.16L111.33-8.16Q110.44-8.16 109.55-8.06L109.55-8.06ZM110.16-2.77L110.16-2.77Q111.09-2.67 112.45-2.67L112.45-2.67L115.69-2.67Q117.33-2.67 117.98-2.81L117.98-2.81Q117.94-2.34 117.94-1.31L117.94-1.31L117.94-0.14Q118.88-0.14 119.53-0.23L119.53-0.23L119.53 0.75Q118.97 0.66 118.03 0.66L118.03 0.66L110.44 0.66Q109.17 0.66 108.52 0.75L108.52 0.75L108.52-0.23Q109.22-0.14 110.25-0.14L110.25-0.14L110.25-1.22Q110.25-2.30 110.16-2.77ZM112.55-0.14L112.55-1.92L111.19-1.92L111.19-0.14L112.55-0.14ZM114.70-0.14L114.70-1.92L113.39-1.92L113.39-0.14L114.70-0.14ZM116.95-1.92L115.59-1.92L115.59-0.14L116.95-0.14L116.95-1.92ZM131.30-9.09L131.30-9.09L131.30-8.06Q130.69-8.16 128.67-8.16L128.67-8.16L126.05-8.16L126.05-0.28L129.05-0.28Q130.69-0.28 131.44-0.38L131.44-0.38L131.48 0.61Q130.97 0.52 129.14 0.52L129.14 0.52L126.52 0.52Q125.58 0.52 125.11 0.61L125.11 0.61Q125.20 0.05 125.20-0.52L125.20-0.52L125.20-7.73Q125.20-8.25 125.11-9.09L125.11-9.09Q125.63-9 126.56-9L126.56-9L128.67-9Q130.59-9 131.30-9.09ZM120.75-9.05L120.75-9.05Q121.08-8.95 121.97-8.95L121.97-8.95L123.05-8.95Q123.61-8.91 124.36-9.09L124.36-9.09Q124.27-8.63 124.27-7.97L124.27-7.97L124.27-2.30Q124.27-1.17 124.36 0L124.36 0L123.38 0Q123.47-0.38 123.47-1.03L123.47-1.03L121.73-1.03Q121.73-0.38 121.83 0.52L121.83 0.52L120.70 0.52Q120.84-0.23 120.84-1.31L120.84-1.31L120.84-7.97Q120.84-8.67 120.75-9.05ZM123.42-8.20L121.73-8.20L121.73-6.56L123.42-6.56L123.42-8.20ZM130.83-7.22L130.83-7.22L130.83-6.28Q129.89-6.38 129.33-6.38L129.33-6.38L128.95-6.38L128.95-4.73Q130.31-4.73 130.78-4.83L130.78-4.83L130.78-3.89Q130.27-3.98 128.95-3.98L128.95-3.98L128.95-2.16L129.52-2.16Q130.22-2.16 130.88-2.25L130.88-2.25Q131.06-2.25 131.11-2.25L131.11-2.25L131.11-1.27Q129.98-1.41 129.42-1.41L129.42-1.41L127.97-1.41Q126.70-1.36 126.38-1.27L126.38-1.27L126.38-2.25Q126.98-2.16 127.92-2.16L127.92-2.16L128.16-2.16L128.16-3.94Q127.17-3.94 126.70-3.84L126.70-3.84L126.70-4.83Q126.98-4.73 128.16-4.73L128.16-4.73L128.16-6.38Q127.03-6.38 126.56-6.28L126.56-6.28L126.56-7.22Q127.17-7.13 128.02-7.13L128.02-7.13L129.19-7.13Q130.31-7.13 130.83-7.22ZM123.42-5.81L121.73-5.81L121.73-4.17L123.42-4.17L123.42-5.81ZM123.42-3.42L121.73-3.42L121.73-1.78L123.42-1.78L123.42-3.42Z" transform="translate(-0.65625, 9.75)"></path>
				</g>
			</g>
		</g>
</svg>